<svg id="check-verified" xmlns="http://www.w3.org/2000/svg" width="22.138" height="22.138" viewBox="0 0 22.138 22.138">
  <path id="Caminho_4" data-name="Caminho 4" d="M6.493,17.283H6.214a2.214,2.214,0,1,1,0-4.428h.279a8.82,8.82,0,0,1,.948-2.285l-.2-.2a2.214,2.214,0,1,1,3.133-3.13l.2.2a8.8,8.8,0,0,1,2.285-.948V6.214a2.214,2.214,0,1,1,4.428,0v.279a8.82,8.82,0,0,1,2.285.948l.2-.2a2.214,2.214,0,0,1,3.13,3.133l-.2.2a8.782,8.782,0,0,1,.948,2.285h.279a2.214,2.214,0,0,1,0,4.428h-.279a8.8,8.8,0,0,1-.948,2.285l.2.2a2.214,2.214,0,0,1-3.133,3.13l-.2-.2a8.8,8.8,0,0,1-2.285.948v.279a2.214,2.214,0,0,1-4.428,0v-.279a8.8,8.8,0,0,1-2.285-.948l-.2.2a2.214,2.214,0,1,1-3.13-3.133l.2-.2a8.8,8.8,0,0,1-.947-2.285Zm5.256-4.428L9.534,15.069,13.962,19.5,20.6,12.855,18.39,10.641l-4.428,4.428Z" transform="translate(-4 -4)" fill="#0060ad" fill-rule="evenodd"/>
</svg>
