<svg xmlns="http://www.w3.org/2000/svg" id="ALIMENTACAO" viewBox="0 0 100 100"><defs><style>      .cls-1 {        fill: #ffffff;        stroke-width: 0px;      }    </style></defs><g><path class="cls-1" d="M13.36,39.43c7.38,0,13.35-5.99,13.36-13.36C26.72,19.28,15.89,2.6,14.65.72c-.47-.71-1.43-.91-2.14-.44-.18.12-.33.27-.44.44C10.83,2.6,0,19.28,0,26.06c0,7.38,5.98,13.35,13.36,13.36h0ZM13.36,4.44c3.73,5.93,10.26,17.23,10.26,21.62,0,5.67-4.6,10.26-10.26,10.26S3.1,31.73,3.1,26.06h0c0-4.39,6.53-15.69,10.26-21.62Z"></path><path class="cls-1" d="M16.75,33.01c.24,0,.48-.06.69-.17,2.33-1.18,3.88-3.5,4.07-6.1.07-1.04.14-1.93.14-1.93.06-.85-.58-1.59-1.44-1.65-.85-.06-1.59.58-1.65,1.43,0,0-.06.89-.14,1.93-.11,1.52-1.01,2.87-2.37,3.56-.76.38-1.07,1.31-.69,2.08.26.52.8.85,1.38.85h0Z"></path></g><path class="cls-1" d="M96.53,61.92c-2.64-3.06-6.41-4.92-10.45-5.15,2.73-1.59,4.41-4.52,4.42-7.68,0-.7-.57-1.27-1.27-1.27h-7.63c-3.51,0-6.36,2.85-6.36,6.36v5.07s-.07-.03-.1-.05c-2.12-1.6-4.69-2.46-7.34-2.47-4.35,0-8.48,1.9-11.31,5.19-2.72,3.13-3.93,7.3-3.32,11.4.28,1.81.83,3.57,1.65,5.22l8.73,17.47c.74,1.53,2,2.75,3.56,3.43,2.95,1.24,6.37.32,8.3-2.23l1.09-1.46.95,1.26c.98,1.35,2.39,2.33,4.01,2.77.56.14,1.14.21,1.72.21,2.64,0,5.05-1.49,6.22-3.85l8.8-17.6c.32-.63.07-1.39-.56-1.71-.63-.32-1.39-.07-1.71.56,0,0,0,.01,0,.02l-8.8,17.6c-.93,1.86-3.03,2.82-5.04,2.31-1.04-.3-1.96-.94-2.58-1.83l-1.96-2.62c-.42-.56-1.22-.68-1.78-.25-.1.07-.18.16-.25.25l-2.11,2.81c-1.23,1.62-3.41,2.21-5.29,1.41-.99-.44-1.8-1.23-2.26-2.22l-8.73-17.47c-.7-1.4-1.18-2.9-1.42-4.45-.52-3.37.48-6.79,2.73-9.35,2.35-2.74,5.77-4.31,9.38-4.31,2.11,0,4.17.7,5.85,1.98,1.72,1.29,4.08,1.27,5.78-.03,1.67-1.26,3.71-1.95,5.81-1.95,3.6,0,7.03,1.57,9.38,4.31,2.25,2.56,3.25,5.99,2.73,9.35-.09.7.4,1.34,1.09,1.43.68.09,1.3-.37,1.42-1.05.61-4.1-.6-8.26-3.32-11.39ZM77.78,54.18c0-2.11,1.71-3.82,3.82-3.82h6.23c-.61,2.96-3.21,5.08-6.23,5.09h-3.82v-1.27ZM77.84,59.22s-.04.02-.06.03v-1.26h2.06c-.71.34-1.38.75-2,1.23Z"></path><path class="cls-1" d="M93.37,73.62c.06.01.13.02.19.02.63,0,1.16-.46,1.26-1.08.4-2.64-.38-5.31-2.15-7.31-1.86-2.17-4.58-3.42-7.45-3.42-.7,0-1.27.57-1.27,1.27s.57,1.27,1.27,1.27c2.12,0,4.14.93,5.52,2.54,1.27,1.44,1.84,3.37,1.56,5.27-.11.69.37,1.34,1.07,1.45Z"></path><circle class="cls-1" cx="68.87" cy="91.07" r="1.27"></circle><circle class="cls-1" cx="66.33" cy="87.25" r="1.27"></circle><path class="cls-1" d="M61.24,97.43h-30.53c-2.11,0-3.82-1.71-3.82-3.82V30.01c0-2.11,1.71-3.82,3.82-3.82h48.34c2.11,0,3.82,1.71,3.82,3.82v13.99c0,.7.57,1.27,1.27,1.27s1.27-.57,1.27-1.27v-13.99c0-3.51-2.85-6.36-6.36-6.36H30.71c-3.51,0-6.36,2.85-6.36,6.36v63.6c0,3.51,2.85,6.36,6.36,6.36h30.53c.7,0,1.27-.57,1.27-1.27s-.57-1.27-1.27-1.27Z"></path><path class="cls-1" d="M77.78,45.76c.7,0,1.27-.57,1.27-1.27v-13.2c0-.7-.57-1.27-1.27-1.27H31.99c-.7,0-1.27.57-1.27,1.27v22.9c0,.7.57,1.27,1.27,1.27h39.43c.7,0,1.27-.57,1.27-1.27s-.57-1.27-1.27-1.27h-38.16v-20.35h43.25v11.93c0,.7.57,1.27,1.27,1.27Z"></path><path class="cls-1" d="M40.89,59.27c0-.7-.57-1.27-1.27-1.27h-7.63c-.7,0-1.27.57-1.27,1.27v7.63c0,.7.57,1.27,1.27,1.27h7.63c.7,0,1.27-.57,1.27-1.27v-7.63ZM38.35,65.63h-5.09v-5.09h5.09v5.09Z"></path><path class="cls-1" d="M54.88,60.54v-1.27c0-.7-.57-1.27-1.27-1.27h-7.63c-.7,0-1.27.57-1.27,1.27v7.63c0,.7.57,1.27,1.27,1.27h3.82c.7,0,1.27-.57,1.27-1.27s-.57-1.27-1.27-1.27h-2.54v-5.09h5.09c0,.7.57,1.27,1.27,1.27s1.27-.57,1.27-1.27Z"></path><path class="cls-1" d="M40.89,71.99c0-.7-.57-1.27-1.27-1.27h-7.63c-.7,0-1.27.57-1.27,1.27v7.63c0,.7.57,1.27,1.27,1.27h7.63c.7,0,1.27-.57,1.27-1.27v-7.63ZM38.35,78.35h-5.09v-5.09h5.09v5.09Z"></path><path class="cls-1" d="M49.79,73.26c.7,0,1.27-.57,1.27-1.27s-.57-1.27-1.27-1.27h-3.82c-.7,0-1.27.57-1.27,1.27v7.63c0,.7.57,1.27,1.27,1.27h5.09c.7,0,1.27-.57,1.27-1.27s-.57-1.27-1.27-1.27h-3.82v-5.09h2.54Z"></path><path class="cls-1" d="M39.62,84.71h-7.63c-.7,0-1.27.57-1.27,1.27v7.63c0,.7.57,1.27,1.27,1.27h7.63c.7,0,1.27-.57,1.27-1.27v-7.63c0-.7-.57-1.27-1.27-1.27ZM38.35,92.34h-5.09v-5.09h5.09v5.09Z"></path><path class="cls-1" d="M44.71,93.61c0,.7.57,1.27,1.27,1.27h7.63c.7,0,1.27-.57,1.27-1.27v-7.63c0-.7-.57-1.27-1.27-1.27h-7.63c-.7,0-1.27.57-1.27,1.27v7.63ZM47.25,87.25h5.09v5.09h-5.09v-5.09Z"></path><path class="cls-1" d="M45.6,39.29c-.5-.5-1.3-.5-1.8,0l-2.92,2.92v-4.56c0-.7-.57-1.27-1.27-1.27s-1.27.57-1.27,1.27v10.18c0,.7.57,1.27,1.27,1.27s1.27-.57,1.27-1.27v-2.02l2.92,2.92c.51.49,1.31.47,1.8-.03.48-.49.48-1.27,0-1.77l-2.92-2.92,2.92-2.92c.5-.5.5-1.3,0-1.8Z"></path><path class="cls-1" d="M53.61,41.46c0,.7.57,1.27,1.27,1.27s1.27-.57,1.27-1.27c0-1.41-1.14-2.54-2.54-2.54h-2.54c-1.41,0-2.54,1.14-2.54,2.54v5.09c0,1.41,1.14,2.54,2.54,2.54h2.54c1.41,0,2.54-1.14,2.54-2.54,0-.7-.57-1.27-1.27-1.27s-1.27.57-1.27,1.27h-2.54v-5.09h2.54Z"></path><path class="cls-1" d="M59.97,42.73c-1.41,0-2.54,1.14-2.54,2.54v1.27c0,1.41,1.14,2.54,2.54,2.54h1.27c.94,0,1.85-.36,2.54-.99.7.64,1.6.99,2.54.99.7,0,1.27-.57,1.27-1.27s-.57-1.27-1.27-1.27-1.27-.57-1.27-1.27v-3.82c0-1.41-1.14-2.54-2.54-2.54h-3.82c-.7,0-1.27.57-1.27,1.27s.57,1.27,1.27,1.27h3.82v1.27h-2.54ZM61.24,46.55h-1.27v-1.27h2.54c0,.7-.57,1.27-1.27,1.27Z"></path><path class="cls-1" d="M70.15,37.64v10.18c0,.7.57,1.27,1.27,1.27s1.27-.57,1.27-1.27v-10.18c0-.7-.57-1.27-1.27-1.27s-1.27.57-1.27,1.27Z"></path></svg>