<svg xmlns="http://www.w3.org/2000/svg" id="ALIMENTACAO" viewBox="0 0 100 100"><defs><style>      .cls-1 {        fill: #ffffff;        opacity: .93;        stroke-width: 0px;      }    </style></defs><path class="cls-1" d="M79.41,10.78H20.59c-5.94,0-10.78,4.84-10.78,10.78v56.87c0,5.94,4.84,10.78,10.78,10.78h58.81c5.94,0,10.78-4.84,10.78-10.78V21.56c0-5.94-4.84-10.78-10.78-10.78ZM79.41,86.54H20.59c-4.47,0-8.1-3.63-8.1-8.1v-.2h75.01v.2c0,4.47-3.63,8.1-8.1,8.1ZM87.51,75.56H12.49V21.56c0-4.47,3.63-8.1,8.1-8.1h58.81c4.47,0,8.1,3.63,8.1,8.1v53.99Z"></path><path class="cls-1" d="M50.42,22.36h-.85c-11.81,0-21.42,9.61-21.42,21.42,0,.74.6,1.34,1.34,1.34h13.95c.61,2.76,3.08,4.84,6.02,4.84s5.41-2.08,6.02-4.84h15.04c.74,0,1.34-.6,1.34-1.34,0-5.72-2.23-11.1-6.28-15.15-4.06-4.04-9.44-6.27-15.15-6.27ZM49.46,47.29c-1.93,0-3.5-1.57-3.5-3.5,0-1.37.81-2.62,2.08-3.19.44-.21.91-.31,1.42-.31,1.93,0,3.5,1.57,3.5,3.5s-1.57,3.5-3.5,3.5ZM55.49,42.45c-.08-.36-.19-.7-.33-1.03-.03-.08-.08-.15-.12-.23-.12-.26-.26-.52-.42-.76-.07-.11-.16-.21-.24-.32-.15-.19-.29-.38-.46-.56-.1-.1-.2-.2-.31-.3-.17-.16-.35-.3-.53-.44-.12-.09-.24-.17-.36-.25-.2-.12-.4-.23-.62-.34-.13-.06-.25-.13-.39-.18-.24-.09-.49-.16-.74-.23-.12-.03-.24-.07-.36-.1-.38-.07-.77-.12-1.17-.12-.44,0-.88.05-1.29.14l-3.49-7.24c-.32-.67-1.12-.94-1.79-.62-.67.32-.95,1.12-.62,1.79l3.47,7.2c-.07.05-.14.11-.2.17-.08.06-.15.13-.22.19-.13.12-.26.25-.38.38-.06.07-.13.14-.19.21-.14.16-.26.33-.38.51-.03.05-.07.09-.1.14-.14.22-.27.46-.38.7-.03.07-.06.15-.09.22-.08.18-.14.35-.2.54-.03.09-.05.19-.08.28-.02.09-.05.17-.07.26h-12.55c.69-9.71,8.81-17.4,18.7-17.4h.85c5,0,9.71,1.95,13.26,5.48,3.23,3.23,5.13,7.42,5.45,11.92h-13.64Z"></path></svg>