<svg xmlns="http://www.w3.org/2000/svg" width="18.25" height="18.25" viewBox="0 0 18.25 18.25">
  <g id="clock-history" transform="translate(0.012)" opacity="0.66">
    <g id="Grupo_3639" data-name="Grupo 3639" transform="translate(-0.012)">
      <path id="Caminho_2915" data-name="Caminho 2915" d="M24.587,1.162Q24.294,1.141,24,1.14V0q.336,0,.672.025l-.084,1.137Zm2.286.513a7.987,7.987,0,0,0-1.123-.341L26,.221a9.008,9.008,0,0,1,1.284.39l-.411,1.064Zm1.562.81q-.245-.163-.5-.308l.562-.992a9.152,9.152,0,0,1,1.117.746l-.7.9q-.232-.181-.477-.344Zm2.092,2.041a7.972,7.972,0,0,0-.745-.908l.826-.787A9.516,9.516,0,0,1,31.46,3.87Zm.849,1.542q-.112-.271-.244-.534l1.018-.513a9.1,9.1,0,0,1,.513,1.241l-1.083.357q-.092-.279-.2-.551Zm.6,2.859a7.972,7.972,0,0,0-.114-1.169l1.123-.194A9.181,9.181,0,0,1,33.122,8.9l-1.14.029Zm-.149,1.754c.038-.194.068-.387.092-.582l1.133.14a9.074,9.074,0,0,1-.262,1.317l-1.1-.3q.079-.282.137-.571ZM30.745,13.4A8.057,8.057,0,0,0,31.3,12.36l1.042.462a9.2,9.2,0,0,1-.633,1.184l-.964-.61Zm-1.1,1.374q.209-.209.4-.431l.864.745q-.22.255-.457.493Z" transform="translate(-14.872)" fill="#6B32C8"/>
      <path id="Caminho_2916" data-name="Caminho 2916" d="M9.117,1.141a7.983,7.983,0,1,0,5.645,13.629l.806.806A9.125,9.125,0,1,1,9.117,0Z" transform="translate(0.012 0)" fill="#6B32C8"/>
      <path id="Caminho_2917" data-name="Caminho 2917" d="M21.57,9a.57.57,0,0,1,.57.57v5.942l3.7,2.117a.57.57,0,0,1-.566.99l-3.992-2.281A.57.57,0,0,1,21,15.843V9.57A.57.57,0,0,1,21.57,9Z" transform="translate(-13.012 -5.579)" fill="#6B32C8"/>
    </g>
  </g>
</svg>
