<svg xmlns="http://www.w3.org/2000/svg" id="ALIMENTACAO" viewBox="0 0 100 100"><defs><style>      .cls-1 {        fill: #ffffff;        stroke-width: 0px;      }    </style></defs><path class="cls-1" d="M49.9,18.48c-17.38,0-31.52,14.14-31.52,31.52s14.14,31.52,31.52,31.52,31.52-14.14,31.52-31.52-14.14-31.52-31.52-31.52ZM49.9,77.54c-15.18,0-27.54-12.35-27.54-27.54s12.35-27.54,27.54-27.54,27.54,12.35,27.54,27.54-12.35,27.54-27.54,27.54Z"></path><path class="cls-1" d="M63.36,35.41c-.82.73-.9,1.99-.17,2.81,2.88,3.25,4.47,7.43,4.47,11.78,0,1.1.89,1.99,1.99,1.99s1.99-.89,1.99-1.99c0-5.32-1.94-10.45-5.47-14.42-.73-.82-1.99-.9-2.81-.17Z"></path><path class="cls-1" d="M49.9,32.24c1.1,0,1.99-.89,1.99-1.99s-.89-1.99-1.99-1.99c-11.99,0-21.74,9.75-21.74,21.74s9.75,21.74,21.74,21.74c1.1,0,1.99-.89,1.99-1.99s-.89-1.99-1.99-1.99c-9.79,0-17.76-7.97-17.76-17.76s7.97-17.76,17.76-17.76Z"></path><path class="cls-1" d="M18.45,24.19c0-1.1-.89-1.99-1.99-1.99s-1.99.89-1.99,1.99v12.71c0,.19-.17.35-.35.35h-2.9v-11.31c0-1.1-.89-1.99-1.99-1.99s-1.99.89-1.99,1.99v11.31h-2.9c-.19,0-.35-.17-.35-.35v-12.71c0-1.1-.89-1.99-1.99-1.99S0,23.09,0,24.19v12.71C0,39.29,1.95,41.24,4.34,41.24h2.9v34.58c0,1.1.89,1.99,1.99,1.99s1.99-.89,1.99-1.99v-34.58h2.9c2.39,0,4.34-1.95,4.34-4.34v-12.71Z"></path><path class="cls-1" d="M97.42,23.98c-1.82-2.66-4.32-4.13-7.04-4.13s-5.21,1.47-7.04,4.13c-1.66,2.43-2.58,5.63-2.58,9.01s.92,6.57,2.58,9.01c1.41,2.06,3.23,3.41,5.24,3.91v32.26c0,1.1.89,1.99,1.99,1.99s1.99-.89,1.99-1.99v-32.37c1.85-.57,3.53-1.87,4.85-3.8,1.66-2.43,2.58-5.63,2.58-9.01s-.92-6.57-2.58-9.01ZM90.38,42.14c-3.05,0-5.63-4.19-5.63-9.15s2.58-9.15,5.63-9.15,5.63,4.19,5.63,9.15-2.58,9.15-5.63,9.15Z"></path></svg>