<svg xmlns="http://www.w3.org/2000/svg" width="18.243" height="18.386" viewBox="0 0 18.243 18.386">
  <g id="whatsapp" transform="translate(0 0)" opacity="0.42">
    <path id="Caminho_2889" data-name="Caminho 2889" d="M11.7,10.9a5.413,5.413,0,0,1,1.158.523,5.142,5.142,0,0,1,1.063.629.506.506,0,0,1,.024.178,2.5,2.5,0,0,1-.2.9,1.592,1.592,0,0,1-.843.778,2.813,2.813,0,0,1-1.211.315,6.414,6.414,0,0,1-2.257-.736,6.778,6.778,0,0,1-2.019-1.4,15.649,15.649,0,0,1-1.758-2.2,4.156,4.156,0,0,1-.843-2.3v-.1a2.625,2.625,0,0,1,.879-1.877.9.9,0,0,1,.618-.261,1.89,1.89,0,0,1,.214.018,1.924,1.924,0,0,0,.226.018.488.488,0,0,1,.315.077.859.859,0,0,1,.184.327q.1.238.392,1.045a6.942,6.942,0,0,1,.3.891,1.205,1.205,0,0,1-.41.683q-.41.434-.41.552a.34.34,0,0,0,.059.178,5.348,5.348,0,0,0,1.211,1.627,7.573,7.573,0,0,0,1.793,1.2.527.527,0,0,0,.261.083q.178,0,.641-.576T11.7,10.9ZM9.288,17.194A7.258,7.258,0,0,0,12.18,16.6a7.345,7.345,0,0,0,3.973-3.973,7.339,7.339,0,0,0,0-5.784A7.345,7.345,0,0,0,12.18,2.87a7.339,7.339,0,0,0-5.784,0A7.345,7.345,0,0,0,2.423,6.843a7.385,7.385,0,0,0,.831,7.263l-.938,2.767,2.874-.915A7.3,7.3,0,0,0,9.288,17.194ZM9.288.78a8.7,8.7,0,0,1,3.474.713,8.849,8.849,0,0,1,4.769,4.769,8.824,8.824,0,0,1,0,6.948,8.849,8.849,0,0,1-4.769,4.769,8.7,8.7,0,0,1-3.474.713,8.818,8.818,0,0,1-4.335-1.116L0,19.166l1.615-4.81a8.9,8.9,0,0,1-.57-8.094A8.849,8.849,0,0,1,5.814,1.493,8.7,8.7,0,0,1,9.288.78Z" transform="translate(0 -0.78)" fill="#0060ad"/>
  </g>
</svg>
