<svg id="instagram" xmlns="http://www.w3.org/2000/svg" width="37.26" height="37.26" viewBox="0 0 37.26 37.26">
  <g id="Grupo_73" data-name="Grupo 73">
    <path id="Caminho_12" data-name="Caminho 12" d="M18.63,0c-5.056,0-5.691.023-7.678.112A13.727,13.727,0,0,0,6.427.978a9.122,9.122,0,0,0-3.3,2.149,9.145,9.145,0,0,0-2.149,3.3,13.646,13.646,0,0,0-.866,4.518C.023,12.936,0,13.569,0,18.632s.023,5.691.112,7.678a13.724,13.724,0,0,0,.866,4.522,9.538,9.538,0,0,0,5.447,5.449,13.677,13.677,0,0,0,4.522.866c1.989.088,2.622.112,7.682.112s5.691-.023,7.68-.112a13.753,13.753,0,0,0,4.525-.866,9.538,9.538,0,0,0,5.447-5.449,13.785,13.785,0,0,0,.866-4.522c.088-1.986.112-2.62.112-7.68s-.023-5.694-.112-7.682a13.769,13.769,0,0,0-.866-4.52,9.143,9.143,0,0,0-2.149-3.3,9.108,9.108,0,0,0-3.3-2.149A13.705,13.705,0,0,0,26.308.112C24.319.023,23.688,0,18.625,0h.007ZM16.96,3.358h1.672c4.974,0,5.563.016,7.526.107a10.324,10.324,0,0,1,3.46.64A5.78,5.78,0,0,1,31.762,5.5a5.756,5.756,0,0,1,1.393,2.142,10.233,10.233,0,0,1,.64,3.458c.091,1.963.109,2.552.109,7.524s-.019,5.563-.109,7.526a10.307,10.307,0,0,1-.64,3.458,6.175,6.175,0,0,1-3.537,3.533,10.249,10.249,0,0,1-3.458.643c-1.963.088-2.552.109-7.526.109s-5.566-.021-7.529-.109a10.29,10.29,0,0,1-3.458-.643A5.771,5.771,0,0,1,5.5,31.75a5.775,5.775,0,0,1-1.4-2.142,10.293,10.293,0,0,1-.64-3.458c-.088-1.963-.107-2.552-.107-7.529s.019-5.561.107-7.524a10.308,10.308,0,0,1,.643-3.46A5.78,5.78,0,0,1,5.5,5.493,5.756,5.756,0,0,1,7.645,4.1,10.29,10.29,0,0,1,11.1,3.458c1.719-.079,2.385-.1,5.857-.1v0ZM28.576,6.451a2.236,2.236,0,1,0,2.236,2.236,2.236,2.236,0,0,0-2.236-2.236ZM18.632,9.063A9.568,9.568,0,1,0,28.2,18.632a9.567,9.567,0,0,0-9.569-9.568Zm0,3.356a6.211,6.211,0,1,1-6.211,6.211A6.211,6.211,0,0,1,18.632,12.419Z" fill="#fff"/>
  </g>
</svg>
